<?xml version="1.0"?>
<svg xmlns="http://www.w3.org/2000/svg" xmlns:xlink="http://www.w3.org/1999/xlink" version="1.1" id="Layer_1" x="0px" y="0px" viewBox="0 0 512 512" style="enable-background:new 0 0 512 512;" xml:space="preserve" width="512px" height="512px" class=""><g><circle style="fill:#020202" cx="256" cy="256" r="256" data-original="#E03A00" class="" data-old_color="#E03A00"/><path style="fill:#020202" d="M275.894,511.236c124.9-9.6,224.685-108.834,235.177-233.482L383.495,150.178l-21.673,48.933  l-50.081,15.515L137.857,373.198L275.894,511.236z" data-original="#940030" class="" data-old_color="#940030"/><path style="fill:#FFFFFF" d="M373.734,247.62c30.915-30.915,30.18-81.494-2.205-111.475  c-29.217-27.048-74.976-27.264-104.429-0.474c-21.02,19.118-28.967,46.821-23.866,72.444L137.106,314.244l-1.164,53.131  c-0.117,5.325,4.274,9.65,9.597,9.454l39.579-1.465c6.847-0.253,12.06-6.234,11.38-13.052l-0.691-6.911  c-0.462-4.627,2.56-8.885,7.08-9.976l25.031-6.042c4.332-1.046,7.714-4.427,8.759-8.759l6.609-27.384  c0.819-3.396,3.47-6.046,6.866-6.866l27.388-6.611c4.332-1.045,7.713-4.427,8.759-8.759l3.934-16.293  C318.1,275.887,351.16,270.195,373.734,247.62z M355.302,156.698c8.694,8.694,8.694,22.788,0,31.48  c-8.694,8.694-22.788,8.694-31.48,0c-8.694-8.694-8.694-22.788,0-31.48C332.514,148.004,346.608,148.004,355.302,156.698z" data-original="#FFEDB5" class="" data-old_color="#FFEDB5"/><path style="fill:#FFFFFF" d="M375.691,140.331l-18.522,18.522c6.751,8.73,6.141,21.316-1.869,29.327  c-8.009,8.011-20.596,8.62-29.327,1.869L140.488,375.534c1.474,0.876,3.205,1.362,5.053,1.293l39.579-1.465  c6.847-0.253,12.06-6.234,11.38-13.052l-0.691-6.911c-0.462-4.627,2.56-8.887,7.08-9.976l25.031-6.042  c4.332-1.045,7.714-4.427,8.759-8.759l6.609-27.384c0.819-3.396,3.47-6.046,6.866-6.866l27.388-6.611  c4.332-1.046,7.713-4.427,8.759-8.759l3.934-16.293c27.869,11.178,60.928,5.487,83.503-17.089  C403.256,218.096,403.894,170.656,375.691,140.331z" data-original="#FDE085" class="" data-old_color="#FDE085"/><path style="fill:#020202" d="M160.265,331.912c-1.324,0-2.646-0.505-3.656-1.515c-2.02-2.019-2.02-5.294,0-7.313l96.858-96.858  c2.02-2.02,5.292-2.02,7.313,0c2.02,2.019,2.02,5.294,0,7.313l-96.858,96.858C162.911,331.407,161.587,331.912,160.265,331.912z" data-original="#FFC61B" class="active-path" data-old_color="#3E3D3D"/></g> </svg>
